<?xml version="1.0" encoding="utf-8"?>
<!-- Generator: Adobe Illustrator 24.2.1, SVG Export Plug-In . SVG Version: 6.00 Build 0)  -->
<svg version="1.1" id="Слой_1" xmlns="http://www.w3.org/2000/svg" xmlns:xlink="http://www.w3.org/1999/xlink" x="0px" y="0px"
	 viewBox="0 0 391.2 141.7" style="enable-background:new 0 0 391.2 141.7;" xml:space="preserve">
<style type="text/css">
	.st0{fill:#FFFFFF;}
	.st1{fill:#E96023;}
	.st2{enable-background:new    ;}
	.st3{fill:none;}
	.st4{fill:#E65F21;}
</style>
<path class="st0" d="M7.9,63.9h19.8l-1.8,14.4h-18c-3.5,0-6.3-2.8-6.3-6.3v-1.7C1.6,66.7,4.4,63.9,7.9,63.9z"/>
<path class="st0" d="M81.7,70.2v1.7c0,3.5-2.8,6.3-6.3,6.3H55.1l-1.8-14.4h22.1C78.9,63.9,81.7,66.7,81.7,70.2z"/>
<path class="st0" d="M7.9,48.5h21.7l-1.8,14.4H7.9c-3.5,0-6.3-2.8-6.3-6.3v-1.7C1.6,51.3,4.4,48.5,7.9,48.5z"/>
<path class="st0" d="M81.7,54.8v1.7c0,3.5-2.8,6.3-6.3,6.3H53.2l-1.8-14.4h24C78.9,48.5,81.7,51.3,81.7,54.8z"/>
<path class="st0" d="M30.5,43.5c-0.1,0.3-0.3,0.7-0.3,1.1l-0.3,2.9h-22c-3.5,0-6.3-2.8-6.3-6.3v-1.7c0-3.5,2.8-6.3,6.3-6.3h16.6
	C24.8,37.3,27.1,41,30.5,43.5z"/>
<path class="st0" d="M81.7,39.4v1.7c0,3.5-2.8,6.3-6.3,6.3H51.2l-0.3-2.9c-0.1-0.4-0.2-0.7-0.3-1.1c3.4-2.5,5.6-6.2,5.9-10.4h18.9
	C78.9,33.1,81.7,35.9,81.7,39.4z"/>
<path class="st0" d="M37.4,17.6c-7.4,1.3-12.9,7.2-13,14.4H7.9c-3.5,0-6.3-2.8-6.3-6.3V24c0-3.5,2.8-6.3,6.3-6.3
	C7.9,17.6,37.4,17.6,37.4,17.6z"/>
<path class="st0" d="M81.7,24v1.7c0,3.5-2.8,6.3-6.3,6.3H56.6c0-7.1-5.6-13.1-13-14.4h31.8C78.9,17.6,81.7,20.5,81.7,24z"/>
<path class="st0" d="M76,16.6H8.5c-3.5,0-6.3-2.8-6.3-6.3V8.6c0-3.5,2.8-6.3,6.3-6.3h67.4c3.5,0,6.3,2.8,6.3,6.3v1.7
	C82.3,13.8,79.5,16.6,76,16.6z"/>
<path class="st0" d="M144,110.9v1.8c0,1.8-0.8,3.5-2.2,4.7c-0.7,0.6-1.4,1.2-2,1.7c-7.5,6.1-15.7,8.3-34,11.6
	c-9.2,1.7-15.6,1.1-20.7,1.1C61.3,131.3,57.9,117,36.7,115c-11-1-23.8,1.7-33.1,6.4c-0.8,0.4-1.8-0.2-1.8-1.1V88.7
	c0-5.2,4.2-9.3,9.3-9.3h14.6l-0.6,5.2c-0.3,2.5,1.6,4.7,4.1,4.7h22.6c2.5,0,4.4-2.2,4.1-4.7l-0.7-5.3h17.3c5.2,0,9.4,4.2,9.4,9.3
	v3.6c0,5.2,4.2,9.3,9.4,9.3h43.5C139.9,101.6,144,105.8,144,110.9z"/>
<path class="st0" d="M107.8,100.1H96.4c-2.2,0-3.9-1.8-3.9-3.9v-2.8c0-2.2,1.8-3.9,3.9-3.9h11.4c2.2,0,3.9,1.8,3.9,3.9v2.8
	C111.7,98.4,109.9,100.1,107.8,100.1z"/>
<path class="st0" d="M128.2,100.1h-11.4c-2.2,0-3.9-1.8-3.9-3.9v-2.8c0-2.2,1.8-3.9,3.9-3.9h11.4c2.2,0,3.9,1.8,3.9,3.9v2.8
	C132.1,98.4,130.3,100.1,128.2,100.1z"/>
<path class="st0" d="M107.2,76H95.8c-2.2,0-3.9-1.8-3.9-3.9v-2.8c0-2.2,1.8-3.9,3.9-3.9h11.4c2.2,0,3.9,1.8,3.9,3.9v2.8
	C111.1,74.2,109.3,76,107.2,76z"/>
<path class="st0" d="M127.6,76h-11.4c-2.2,0-3.9-1.8-3.9-3.9v-2.8c0-2.2,1.8-3.9,3.9-3.9h11.4c2.2,0,3.9,1.8,3.9,3.9v2.8
	C131.5,74.2,129.8,76,127.6,76z"/>
<path class="st0" d="M98,88H86.6c-2.2,0-3.9-1.8-3.9-3.9v-2.8c0-2.2,1.8-3.9,3.9-3.9H98c2.2,0,3.9,1.8,3.9,3.9v2.8
	C101.9,86.3,100.2,88,98,88z"/>
<path class="st0" d="M118.4,88H107c-2.2,0-3.9-1.8-3.9-3.9v-2.8c0-2.2,1.8-3.9,3.9-3.9h11.4c2.2,0,3.9,1.8,3.9,3.9v2.8
	C122.3,86.3,120.6,88,118.4,88z"/>
<path class="st0" d="M139,88h-11.4c-2.2,0-3.9-1.8-3.9-3.9v-2.8c0-2.2,1.8-3.9,3.9-3.9H139c2.2,0,3.9,1.8,3.9,3.9v2.8
	C142.9,86.3,141.2,88,139,88z"/>
<path class="st0" d="M98.7,63.9H87.3c-2.2,0-3.9-1.8-3.9-3.9v-2.8c0-2.2,1.8-3.9,3.9-3.9h11.4c2.2,0,3.9,1.8,3.9,3.9V60
	C102.5,62.1,100.8,63.9,98.7,63.9z"/>
<path class="st0" d="M119,63.9h-11.4c-2.2,0-3.9-1.8-3.9-3.9v-2.8c0-2.2,1.8-3.9,3.9-3.9H119c2.2,0,3.9,1.8,3.9,3.9V60
	C123,62.1,121.2,63.9,119,63.9z"/>
<path class="st0" d="M139.7,63.9h-11.4c-2.2,0-3.9-1.8-3.9-3.9v-2.8c0-2.2,1.8-3.9,3.9-3.9h11.4c2.2,0,3.9,1.8,3.9,3.9V60
	C143.6,62.1,141.8,63.9,139.7,63.9z"/>
<path class="st0" d="M258.6,28.7c7.5,6,6.7,19.6-1.9,30.4c-1.7,2.2-3.6,4-5.6,5.6c4.9-0.8,9.7-3.4,13.2-7.8c7-8.8,6.1-21.2-2-27.7
	c-5.8-4.6-13.6-5-20.1-1.7C248.2,25.1,254.3,25.3,258.6,28.7z"/>
<path class="st1" d="M251.9,25.1c7.5,6,6.7,19.6-1.9,30.4c-1.7,2.2-3.6,4-5.6,5.6c4.9-0.8,9.7-3.5,13.2-7.8c7-8.8,6.1-21.2-2-27.7
	c-5.8-4.6-13.6-5-20.1-1.7C241.5,21.5,247.6,21.7,251.9,25.1z"/>
<g>
	<path class="st0" d="M174.5,67.7h-5.8v-5.6c0-0.7-0.1-1.1-0.4-1.4c-0.2-0.2-0.7-0.3-1.5-0.3h-3.2c-0.8,0-1.3,0.1-1.5,0.3
		s-0.4,0.7-0.4,1.4v24.7c0,0.7,0.1,1.1,0.4,1.4c0.3,0.2,0.8,0.3,1.5,0.3h3.2c0.8,0,1.2-0.1,1.5-0.3c0.2-0.2,0.4-0.7,0.4-1.4v-5.5
		h5.8v6.2c0,3.4-2,5.2-5.9,5.2H162c-3.9,0-5.8-1.7-5.8-5.2V61.4c0-3.4,1.9-5.1,5.8-5.1h6.6c3.9,0,5.9,1.7,5.9,5.1V67.7z"/>
	<path class="st0" d="M184.7,58.9v-5.2h5.9v5.2H184.7z M190.4,92.5h-5.6V64.3h5.6V92.5z"/>
	<path class="st0" d="M211.4,68.5h-4.2v17.9c0,0.7,0.1,1.1,0.4,1.4c0.2,0.2,0.7,0.3,1.5,0.3h2.4v4.5h-4c-3.9,0-5.9-1.7-5.9-5.1v-19
		h-2.9v-4.2h2.9v-4.8h5.7v4.8h4.2L211.4,68.5L211.4,68.5z"/>
	<path class="st0" d="M224.5,100.5h-3.8v-4.2h2.6c1.8,0,2.9-0.6,3.3-1.9l0.6-2.4h-3.1l-6.4-27.8h5.8l4.6,23.7l4.3-23.7h5.7l-6.4,31
		C230.7,98.8,228.4,100.5,224.5,100.5z"/>
	<path class="st0" d="M272.9,92.5c-3.9,0-5.9-1.7-5.9-5.1v-26c0-3.4,2-5.1,5.9-5.1h7c3.9,0,5.8,1.7,5.8,5.1v26.1
		c0,2.6-1.2,4.3-3.5,4.9l4.5,5.5h-6l-4.1-5.3L272.9,92.5L272.9,92.5L272.9,92.5z M272.7,62.2v24.4c0,0.7,0.1,1.1,0.4,1.4
		c0.2,0.2,0.7,0.3,1.5,0.3h3.6c0.8,0,1.3-0.1,1.5-0.3s0.4-0.7,0.4-1.4V62.2c0-0.7-0.1-1.1-0.4-1.4s-0.8-0.3-1.5-0.3h-3.6
		c-0.8,0-1.2,0.1-1.5,0.3S272.7,61.5,272.7,62.2z"/>
	<path class="st0" d="M308.3,64.3h5.6v28.3h-5.6v-2.3c-0.5,1.5-1.8,2.3-3.9,2.3h-2.3c-3.8,0-5.6-1.7-5.6-5.1V64.3h5.6v22.3
		c0,0.7,0.1,1.1,0.4,1.4c0.2,0.2,0.8,0.3,1.5,0.3h2.2c0.8,0,1.3-0.2,1.6-0.5s0.5-0.8,0.5-1.6L308.3,64.3L308.3,64.3z"/>
	<path class="st0" d="M330.3,64.3h6.1c3.9,0,5.9,1.7,5.9,5.2v10.6H330v6.7c0,0.7,0.1,1.1,0.4,1.3c0.2,0.2,0.8,0.3,1.5,0.3h2.9
		c0.8,0,1.3-0.1,1.5-0.3c0.2-0.2,0.4-0.7,0.4-1.4v-2.3h5.5v3.1c0,3.4-2,5.1-5.8,5.1h-6c-3.9,0-5.8-1.7-5.8-5.1v-18
		C324.5,66,326.4,64.3,330.3,64.3z M330,76.2h6.8V70c0-0.7-0.1-1.1-0.4-1.3c-0.2-0.2-0.7-0.3-1.5-0.3h-3.1c-0.8,0-1.3,0.1-1.5,0.3
		c-0.2,0.2-0.4,0.7-0.4,1.3v6.2H330z"/>
	<path class="st0" d="M362.5,86.9v-4.7c0-0.7-0.1-1.1-0.4-1.4s-0.8-0.3-1.5-0.3h-3.2c-3.9,0-5.8-1.7-5.8-5.1v-6c0-3.4,2-5.2,5.8-5.2
		h4.6c3.9,0,5.9,1.7,5.9,5.2v2.7h-5.5v-2.2c0-0.7-0.1-1.1-0.4-1.4s-0.8-0.3-1.5-0.3H359c-0.8,0-1.3,0.1-1.5,0.3s-0.4,0.7-0.4,1.4
		v4.9c0,0.7,0.1,1.1,0.4,1.4c0.2,0.2,0.8,0.3,1.5,0.3h3.3c3.8,0,5.8,1.7,5.8,5.2v5.8c0,3.4-2,5.1-5.8,5.1h-4.6
		c-3.9,0-5.8-1.7-5.8-5.1v-2.9h5.5v2.2c0,0.7,0.1,1.1,0.4,1.4s0.8,0.3,1.5,0.3h1.5c0.8,0,1.3-0.1,1.5-0.3
		C362.3,88,362.5,87.6,362.5,86.9z"/>
	<path class="st0" d="M388.3,68.5h-4.2v17.9c0,0.7,0.1,1.1,0.4,1.4c0.2,0.2,0.7,0.3,1.5,0.3h2.4v4.5h-4c-3.9,0-5.9-1.7-5.9-5.1v-19
		h-2.9v-4.2h2.9v-4.8h5.7v4.8h4.2L388.3,68.5L388.3,68.5z"/>
</g>
<g class="st2">
	<path class="st0" d="M155.5,117v4.8h-2.4v-12.2h4.8c1.5,0,2.3,0.6,2.3,1.9v3.6c0,1.1-0.5,1.7-1.5,1.8l2.2,4.8h-2.6l-2-4.8
		L155.5,117L155.5,117z M155.5,111.3v4.1h1.7c0.2,0,0.4,0,0.4-0.1c0.1-0.1,0.1-0.2,0.1-0.4v-3.1c0-0.2,0-0.3-0.1-0.4
		s-0.2-0.1-0.4-0.1H155.5L155.5,111.3z"/>
	<path class="st0" d="M164.6,120.1h4v1.7h-6.4v-12.2h6.3v1.7h-3.8v3.4h3.2v1.7h-3.2L164.6,120.1
		C164.5,120.1,164.6,120.1,164.6,120.1z"/>
	<path class="st0" d="M175,109.6h2.5l-2.6,12.2h-3.1l-2.6-12.2h2.5l1.7,9.8L175,109.6z"/>
	<path class="st0" d="M193.1,121.8l-0.5-2.5h-2.9l-0.4,2.5h-2.4l2.6-12.2h3.2l2.8,12.2H193.1z M190.1,117.6h2.2l-1.1-5.8
		L190.1,117.6z"/>
	<path class="st0" d="M199.2,120.1h3.5v1.7h-5.9v-12.2h2.4V120.1z"/>
	<path class="st0" d="M216.8,109.6v1.7h-2.3v10.5h-2.4v-10.5h-2.3v-1.7H216.8z"/>
	<path class="st0" d="M223.1,109.6h2.4v12.2h-2.4v-5.2h-2.7v5.2H218v-12.2h2.4v5.3h2.7V109.6z"/>
	<path class="st0" d="M230,120.1h4v1.7h-6.4v-12.2h6.3v1.7h-3.8v3.4h3.2v1.7h-3.2L230,120.1L230,120.1z"/>
	<path class="st0" d="M243.1,119.6V117c0-0.2,0-0.3-0.1-0.4s-0.2-0.1-0.5-0.1h-1.7c-1.4,0-2.1-0.6-2.1-1.9v-3c0-1.3,0.8-1.9,2.3-1.9
		h2.3c1.5,0,2.3,0.6,2.3,1.9v1.7h-2.4v-1.4c0-0.2,0-0.3-0.1-0.4s-0.2-0.1-0.5-0.1h-0.8c-0.2,0-0.4,0-0.5,0.1s-0.1,0.2-0.1,0.4v2.4
		c0,0.2,0,0.3,0.1,0.4s0.2,0.1,0.5,0.1h1.6c1.5,0,2.2,0.6,2.2,1.9v3.2c0,1.3-0.8,1.9-2.3,1.9H241c-1.5,0-2.3-0.6-2.3-1.9v-1.7h2.4
		v1.4c0,0.2,0,0.3,0.1,0.4s0.2,0.1,0.5,0.1h0.8c0.2,0,0.4,0,0.5-0.1C243,119.9,243.1,119.8,243.1,119.6z"/>
	<path class="st0" d="M249.7,120.1h4v1.7h-6.4v-12.2h6.3v1.7h-3.8v3.4h3.2v1.7h-3.2L249.7,120.1L249.7,120.1z"/>
	<path class="st0" d="M262.1,113.6h-2.4v-1.9c0-0.2,0-0.3-0.1-0.4s-0.2-0.1-0.5-0.1h-1c-0.2,0-0.4,0-0.5,0.1s-0.1,0.2-0.1,0.4v7.9
		c0,0.2,0,0.3,0.1,0.4s0.2,0.1,0.5,0.1h1c0.2,0,0.4,0,0.5-0.1s0.1-0.2,0.1-0.4v-1.8h2.4v2.1c0,1.3-0.8,1.9-2.3,1.9h-2.4
		c-1.5,0-2.3-0.6-2.3-1.9v-8.4c0-1.3,0.8-1.9,2.3-1.9h2.4c1.5,0,2.3,0.6,2.3,1.9V113.6z"/>
	<path class="st0" d="M266.2,117v4.8h-2.4v-12.2h4.8c1.5,0,2.3,0.6,2.3,1.9v3.6c0,1.1-0.5,1.7-1.5,1.8l2.2,4.8H269l-2-4.8L266.2,117
		L266.2,117z M266.2,111.3v4.1h1.7c0.2,0,0.4,0,0.5-0.1s0.1-0.2,0.1-0.4v-3.1c0-0.2,0-0.3-0.1-0.4s-0.2-0.1-0.5-0.1H266.2
		L266.2,111.3z"/>
	<path class="st0" d="M275.3,120.1h4v1.7h-6.4v-12.2h6.3v1.7h-3.8v3.4h3.2v1.7h-3.2L275.3,120.1L275.3,120.1z"/>
	<path class="st0" d="M286.9,109.6v1.7h-2.3v10.5h-2.4v-10.5h-2.3v-1.7H286.9z"/>
	<path class="st0" d="M292.2,119.6V117c0-0.2,0-0.3-0.1-0.4s-0.2-0.1-0.5-0.1h-1.7c-1.4,0-2.1-0.6-2.1-1.9v-3c0-1.3,0.8-1.9,2.3-1.9
		h2.3c1.5,0,2.3,0.6,2.3,1.9v1.7h-2.4v-1.4c0-0.2,0-0.3-0.1-0.4s-0.2-0.1-0.5-0.1h-0.8c-0.2,0-0.4,0-0.5,0.1s-0.1,0.2-0.1,0.4v2.4
		c0,0.2,0,0.3,0.1,0.4s0.2,0.1,0.5,0.1h1.6c1.5,0,2.2,0.6,2.2,1.9v3.2c0,1.3-0.8,1.9-2.3,1.9h-2.3c-1.5,0-2.3-0.6-2.3-1.9v-1.7h2.4
		v1.4c0,0.2,0,0.3,0.1,0.4s0.2,0.1,0.5,0.1h0.8c0.2,0,0.4,0,0.5-0.1S292.2,119.8,292.2,119.6z"/>
	<path class="st0" d="M305.5,109.6h2.5c1.5,0,2.3,0.6,2.3,1.9v8.4c0,1.3-0.8,1.9-2.3,1.9h-2.5c-1.5,0-2.3-0.6-2.3-1.9v-8.4
		C303.2,110.2,304,109.6,305.5,109.6z M307.9,119.6v-7.7c0-0.2,0-0.3-0.1-0.4s-0.2-0.1-0.5-0.1h-1.1c-0.2,0-0.4,0-0.5,0.1
		s-0.1,0.2-0.1,0.4v7.7c0,0.2,0,0.3,0.1,0.4s0.2,0.1,0.5,0.1h1.1c0.2,0,0.4,0,0.5-0.1S307.9,119.8,307.9,119.6z"/>
	<path class="st0" d="M318.7,111.3h-4v3.7h3.2v1.6h-3.2v5.2h-2.4v-12.2h6.4V111.3z"/>
	<path class="st0" d="M331.4,121.8H329v-3.9l-3.1-8.3h2.4l1.8,6.3l1.7-6.3h2.4l-2.9,8.3L331.4,121.8L331.4,121.8z"/>
	<path class="st0" d="M337.6,109.6h2.5c1.5,0,2.3,0.6,2.3,1.9v8.4c0,1.3-0.8,1.9-2.3,1.9h-2.5c-1.5,0-2.3-0.6-2.3-1.9v-8.4
		C335.4,110.2,336.1,109.6,337.6,109.6z M340.1,119.6v-7.7c0-0.2,0-0.3-0.1-0.4s-0.2-0.1-0.5-0.1h-1.1c-0.2,0-0.4,0-0.5,0.1
		s-0.1,0.2-0.1,0.4v7.7c0,0.2,0,0.3,0.1,0.4s0.2,0.1,0.5,0.1h1.1c0.2,0,0.4,0,0.5-0.1C340,119.9,340.1,119.8,340.1,119.6z"/>
	<path class="st0" d="M349.1,109.6h2.4v10.3c0,1.3-0.8,1.9-2.3,1.9h-2.5c-1.5,0-2.3-0.6-2.3-1.9v-10.3h2.4v10c0,0.2,0,0.3,0.1,0.4
		s0.2,0.1,0.5,0.1h1.1c0.2,0,0.4,0,0.5-0.1s0.1-0.2,0.1-0.4L349.1,109.6L349.1,109.6z"/>
	<path class="st0" d="M356,117v4.8h-2.4v-12.2h4.8c1.5,0,2.3,0.6,2.3,1.9v3.6c0,1.1-0.5,1.7-1.5,1.8l2.2,4.8h-2.6l-2-4.8L356,117
		L356,117z M356,111.3v4.1h1.7c0.2,0,0.4,0,0.5-0.1s0.1-0.2,0.1-0.4v-3.1c0-0.2,0-0.3-0.1-0.4s-0.2-0.1-0.5-0.1H356L356,111.3z"/>
	<path class="st0" d="M373,113.6h-2.4v-1.9c0-0.2,0-0.3-0.1-0.4s-0.2-0.1-0.5-0.1h-1c-0.2,0-0.4,0-0.5,0.1s-0.1,0.2-0.1,0.4v7.9
		c0,0.2,0,0.3,0.1,0.4s0.2,0.1,0.5,0.1h1c0.2,0,0.4,0,0.5-0.1s0.1-0.2,0.1-0.4v-1.8h2.4v2.1c0,1.3-0.8,1.9-2.3,1.9h-2.4
		c-1.5,0-2.3-0.6-2.3-1.9v-8.4c0-1.3,0.8-1.9,2.3-1.9h2.4c1.5,0,2.3,0.6,2.3,1.9V113.6z"/>
	<path class="st0" d="M374.9,109.6h2.4v12.2h-2.4V109.6z"/>
	<path class="st0" d="M385.6,109.6v1.7h-2.3v10.5h-2.4v-10.5h-2.3v-1.7H385.6z"/>
	<path class="st0" d="M391.3,121.8h-2.4v-3.9l-3.1-8.3h2.4l1.8,6.3l1.7-6.3h2.4l-2.9,8.3L391.3,121.8
		C391.2,121.8,391.3,121.8,391.3,121.8z"/>
</g>
<rect x="152.5" y="48.2" class="st3" width="623.4" height="42"/>
<g class="st2">
	<path class="st1" d="M173.4,68.8h-5.8v-5.6c0-0.7-0.1-1.1-0.4-1.4c-0.2-0.2-0.7-0.3-1.5-0.3h-3.2c-0.8,0-1.3,0.1-1.5,0.3
		s-0.4,0.7-0.4,1.4v24.7c0,0.7,0.1,1.1,0.4,1.4c0.3,0.2,0.8,0.3,1.5,0.3h3.2c0.8,0,1.2-0.1,1.5-0.3c0.2-0.2,0.4-0.7,0.4-1.4v-5.5
		h5.8v6.2c0,3.4-2,5.2-5.9,5.2h-6.6c-3.9,0-5.8-1.7-5.8-5.2V62.5c0-3.4,1.9-5.1,5.8-5.1h6.6c3.9,0,5.9,1.7,5.9,5.1V68.8z"/>
	<path class="st1" d="M183.5,60v-5.2h5.9V60H183.5z M189.3,93.7h-5.6V65.4h5.6V93.7z"/>
	<path class="st1" d="M210.3,69.6h-4.2v17.9c0,0.7,0.1,1.1,0.4,1.4c0.2,0.2,0.7,0.3,1.5,0.3h2.4v4.5h-4c-3.9,0-5.9-1.7-5.9-5.1v-19
		h-2.9v-4.2h2.9v-4.8h5.7v4.8h4.2L210.3,69.6L210.3,69.6z"/>
	<path class="st1" d="M223.4,101.7h-3.8v-4.2h2.6c1.8,0,2.9-0.6,3.3-1.9l0.6-2.4H223l-6.4-27.8h5.8l4.6,23.7l4.3-23.7h5.7l-6.4,31
		C229.6,99.9,227.3,101.7,223.4,101.7z"/>
	<path class="st1" d="M271.8,93.7c-3.9,0-5.9-1.7-5.9-5.1V62.5c0-3.4,2-5.1,5.9-5.1h7c3.9,0,5.8,1.7,5.8,5.1v26.1
		c0,2.6-1.2,4.3-3.5,4.9l4.5,5.5h-6l-4.1-5.3H271.8L271.8,93.7L271.8,93.7z M271.6,63.3v24.4c0,0.7,0.1,1.1,0.4,1.4
		c0.2,0.2,0.7,0.3,1.5,0.3h3.6c0.8,0,1.3-0.1,1.5-0.3s0.4-0.7,0.4-1.4V63.3c0-0.7-0.1-1.1-0.4-1.4s-0.8-0.3-1.5-0.3h-3.6
		c-0.8,0-1.2,0.1-1.5,0.3C271.7,62.2,271.6,62.6,271.6,63.3z"/>
	<path class="st1" d="M307.2,65.4h5.6v28.3h-5.6v-2.3c-0.5,1.5-1.8,2.3-3.9,2.3H301c-3.8,0-5.6-1.7-5.6-5.1V65.4h5.6v22.4
		c0,0.7,0.1,1.1,0.4,1.4c0.2,0.2,0.8,0.3,1.5,0.3h2.2c0.8,0,1.3-0.2,1.6-0.5s0.5-0.8,0.5-1.6L307.2,65.4L307.2,65.4z"/>
	<path class="st1" d="M329.2,65.4h6.1c3.9,0,5.9,1.7,5.9,5.2v10.6h-12.3v6.7c0,0.7,0.1,1.1,0.4,1.3c0.2,0.2,0.8,0.3,1.5,0.3h2.9
		c0.8,0,1.3-0.1,1.5-0.3c0.2-0.2,0.4-0.7,0.4-1.4v-2.2h5.5v3c0,3.4-2,5.1-5.8,5.1h-6c-3.9,0-5.8-1.7-5.8-5.1v-18
		C323.4,67.1,325.3,65.4,329.2,65.4z M328.9,77.4h6.8v-6.2c0-0.7-0.1-1.1-0.4-1.3c-0.2-0.2-0.7-0.3-1.5-0.3h-3.1
		c-0.8,0-1.3,0.1-1.5,0.3c-0.2,0.2-0.4,0.7-0.4,1.3v6.2H328.9z"/>
	<path class="st1" d="M361.4,88v-4.7c0-0.7-0.1-1.1-0.4-1.4s-0.8-0.3-1.5-0.3h-3.2c-3.9,0-5.8-1.7-5.8-5.1v-6c0-3.4,2-5.2,5.8-5.2
		h4.6c3.9,0,5.9,1.7,5.9,5.2v2.7h-5.5V71c0-0.7-0.1-1.1-0.4-1.4s-0.8-0.3-1.5-0.3h-1.5c-0.8,0-1.3,0.1-1.5,0.3S356,70.3,356,71v4.9
		c0,0.7,0.1,1.1,0.4,1.4c0.2,0.2,0.8,0.3,1.5,0.3h3.3c3.8,0,5.8,1.7,5.8,5.2v5.8c0,3.4-2,5.1-5.8,5.1h-4.6c-3.9,0-5.8-1.7-5.8-5.1
		v-2.8h5.5V88c0,0.7,0.1,1.1,0.4,1.4s0.8,0.3,1.5,0.3h1.5c0.8,0,1.3-0.1,1.5-0.3S361.4,88.7,361.4,88z"/>
	<path class="st1" d="M387.2,69.6H383v17.9c0,0.7,0.1,1.1,0.4,1.4c0.2,0.2,0.7,0.3,1.5,0.3h2.4v4.5h-4c-3.9,0-5.9-1.7-5.9-5.1v-19
		h-2.9v-4.2h2.9v-4.8h5.7v4.8h4.2L387.2,69.6L387.2,69.6z"/>
</g>
<rect x="161.1" y="109.3" class="st3" width="317" height="23.2"/>
<g class="st2">
	<path class="st4" d="M155,117v4.8h-2.4v-12.2h4.8c1.5,0,2.3,0.6,2.3,1.9v3.6c0,1.1-0.5,1.7-1.5,1.8l2.2,4.8h-2.6l-2-4.8L155,117
		L155,117z M155,111.3v4.1h1.7c0.2,0,0.4,0,0.4-0.1c0.1-0.1,0.1-0.2,0.1-0.4v-3.1c0-0.2,0-0.3-0.1-0.4s-0.2-0.1-0.4-0.1H155
		L155,111.3z"/>
	<path class="st4" d="M164.1,120h4v1.7h-6.4v-12.1h6.3v1.7h-3.8v3.4h3.2v1.7h-3.2L164.1,120L164.1,120L164.1,120z"/>
	<path class="st4" d="M174.6,109.6h2.5l-2.6,12.2h-3.1l-2.6-12.2h2.5l1.7,9.8L174.6,109.6z"/>
	<path class="st4" d="M192.3,121.7l-0.5-2.5h-2.9l-0.4,2.5h-2.4l2.6-12.2h3.2l2.8,12.2H192.3z M189.2,117.5h2.2l-1.1-5.8
		L189.2,117.5z"/>
	<path class="st4" d="M198.4,120h3.5v1.7H196v-12.1h2.4V120z"/>
	<path class="st4" d="M216,109.6v1.7h-2.3v10.5h-2.4v-10.5H209v-1.7H216z"/>
	<path class="st4" d="M222.3,109.6h2.4v12.2h-2.4v-5.2h-2.7v5.2h-2.4v-12.2h2.4v5.3h2.7V109.6z"/>
	<path class="st4" d="M229.2,120h4v1.7h-6.4v-12.1h6.3v1.7h-3.8v3.4h3.2v1.7h-3.2L229.2,120L229.2,120L229.2,120z"/>
	<path class="st4" d="M242.2,119.5v-2.6c0-0.2,0-0.3-0.1-0.4s-0.2-0.1-0.5-0.1h-1.7c-1.4,0-2.1-0.6-2.1-1.9v-3
		c0-1.3,0.8-1.9,2.3-1.9h2.3c1.5,0,2.3,0.6,2.3,1.9v1.7h-2.4v-1.4c0-0.2,0-0.3-0.1-0.4s-0.2-0.1-0.5-0.1h-0.8c-0.2,0-0.4,0-0.5,0.1
		s-0.1,0.2-0.1,0.4v2.4c0,0.2,0,0.3,0.1,0.4s0.2,0.1,0.5,0.1h1.6c1.5,0,2.2,0.6,2.2,1.9v3.2c0,1.3-0.8,1.9-2.3,1.9h-2.3
		c-1.5,0-2.3-0.6-2.3-1.9v-1.7h2.4v1.3c0,0.2,0,0.3,0.1,0.4s0.2,0.1,0.5,0.1h0.8c0.2,0,0.4,0,0.5-0.1
		C242.2,119.9,242.2,119.7,242.2,119.5z"/>
	<path class="st4" d="M248.9,120h4v1.7h-6.4v-12.1h6.3v1.7H249v3.4h3.3v1.7h-3.2L248.9,120L248.9,120z"/>
	<path class="st4" d="M261.2,113.6h-2.4v-1.9c0-0.2,0-0.3-0.1-0.4s-0.2-0.1-0.5-0.1h-1c-0.2,0-0.4,0-0.5,0.1s-0.1,0.2-0.1,0.4v7.9
		c0,0.2,0,0.3,0.1,0.4s0.2,0.1,0.5,0.1h1c0.2,0,0.4,0,0.5-0.1s0.1-0.2,0.1-0.4v-1.8h2.4v2.1c0,1.3-0.8,1.9-2.3,1.9h-2.4
		c-1.5,0-2.3-0.6-2.3-1.9v-8.4c0-1.3,0.8-1.9,2.3-1.9h2.4c1.5,0,2.3,0.6,2.3,1.9V113.6z"/>
	<path class="st4" d="M265.4,117v4.8H263v-12.2h4.8c1.5,0,2.3,0.6,2.3,1.9v3.6c0,1.1-0.5,1.7-1.5,1.8l2.2,4.8h-2.6l-2-4.8L265.4,117
		L265.4,117z M265.4,111.3v4.1h1.7c0.2,0,0.4,0,0.5-0.1s0.1-0.2,0.1-0.4v-3.1c0-0.2,0-0.3-0.1-0.4s-0.2-0.1-0.5-0.1H265.4
		L265.4,111.3z"/>
	<path class="st4" d="M274.5,120h4v1.7h-6.4v-12.1h6.3v1.7h-3.8v3.4h3.2v1.7h-3.2L274.5,120L274.5,120L274.5,120z"/>
	<path class="st4" d="M286,109.6v1.7h-2.3v10.5h-2.4v-10.5H279v-1.7H286z"/>
	<path class="st4" d="M291.4,119.5v-2.6c0-0.2,0-0.3-0.1-0.4s-0.2-0.1-0.5-0.1h-1.7c-1.4,0-2.1-0.6-2.1-1.9v-3
		c0-1.3,0.8-1.9,2.3-1.9h2.3c1.5,0,2.3,0.6,2.3,1.9v1.7h-2.4v-1.4c0-0.2,0-0.3-0.1-0.4s-0.2-0.1-0.5-0.1h-0.8c-0.2,0-0.4,0-0.5,0.1
		s-0.1,0.2-0.1,0.4v2.4c0,0.2,0,0.3,0.1,0.4s0.2,0.1,0.5,0.1h1.6c1.5,0,2.2,0.6,2.2,1.9v3.2c0,1.3-0.8,1.9-2.3,1.9h-2.3
		c-1.5,0-2.3-0.6-2.3-1.9v-1.7h2.4v1.3c0,0.2,0,0.3,0.1,0.4s0.2,0.1,0.5,0.1h0.8c0.2,0,0.4,0,0.5-0.1
		C291.4,119.9,291.4,119.7,291.4,119.5z"/>
	<path class="st4" d="M304.7,109.6h2.5c1.5,0,2.3,0.6,2.3,1.9v8.4c0,1.3-0.8,1.9-2.3,1.9h-2.5c-1.5,0-2.3-0.6-2.3-1.9v-8.4
		C302.4,110.2,303.2,109.6,304.7,109.6z M307.1,119.5v-7.7c0-0.2,0-0.3-0.1-0.4s-0.2-0.1-0.5-0.1h-1.1c-0.2,0-0.4,0-0.5,0.1
		s-0.1,0.2-0.1,0.4v7.7c0,0.2,0,0.3,0.1,0.4s0.2,0.1,0.5,0.1h1.1c0.2,0,0.4,0,0.5-0.1S307.1,119.7,307.1,119.5z"/>
	<path class="st4" d="M317.9,111.3h-4v3.7h3.2v1.6h-3.2v5.2h-2.4v-12.2h6.4V111.3z"/>
	<path class="st4" d="M330.6,121.7h-2.4v-3.9l-3.1-8.3h2.4l1.8,6.3l1.7-6.3h2.4l-2.9,8.3L330.6,121.7L330.6,121.7z"/>
	<path class="st4" d="M336.8,109.6h2.5c1.5,0,2.3,0.6,2.3,1.9v8.4c0,1.3-0.8,1.9-2.3,1.9h-2.5c-1.5,0-2.3-0.6-2.3-1.9v-8.4
		C334.5,110.2,335.3,109.6,336.8,109.6z M339.2,119.5v-7.7c0-0.2,0-0.3-0.1-0.4s-0.2-0.1-0.5-0.1h-1c-0.2,0-0.4,0-0.5,0.1
		s-0.1,0.2-0.1,0.4v7.7c0,0.2,0,0.3,0.1,0.4s0.2,0.1,0.5,0.1h1.1c0.2,0,0.4,0,0.5-0.1S339.2,119.7,339.2,119.5z"/>
	<path class="st4" d="M348.3,109.6h2.4v10.3c0,1.3-0.8,1.9-2.3,1.9h-2.5c-1.5,0-2.3-0.6-2.3-1.9v-10.3h2.4v10c0,0.2,0,0.3,0.1,0.4
		s0.2,0.1,0.5,0.1h1.1c0.2,0,0.4,0,0.5-0.1s0.1-0.2,0.1-0.4L348.3,109.6L348.3,109.6z"/>
	<path class="st4" d="M355.2,117v4.8h-2.4v-12.2h4.8c1.5,0,2.3,0.6,2.3,1.9v3.6c0,1.1-0.5,1.7-1.5,1.8l2.2,4.8H358l-2-4.8L355.2,117
		L355.2,117z M355.2,111.3v4.1h1.7c0.2,0,0.4,0,0.5-0.1s0.1-0.2,0.1-0.4v-3.1c0-0.2,0-0.3-0.1-0.4s-0.2-0.1-0.5-0.1H355.2
		L355.2,111.3z"/>
	<path class="st4" d="M372.1,113.6h-2.4v-1.9c0-0.2,0-0.3-0.1-0.4s-0.2-0.1-0.5-0.1h-1c-0.2,0-0.4,0-0.5,0.1s-0.1,0.2-0.1,0.4v7.9
		c0,0.2,0,0.3,0.1,0.4s0.2,0.1,0.5,0.1h1c0.2,0,0.4,0,0.5-0.1s0.1-0.2,0.1-0.4v-1.8h2.4v2.1c0,1.3-0.8,1.9-2.3,1.9h-2.4
		c-1.5,0-2.3-0.6-2.3-1.9v-8.4c0-1.3,0.8-1.9,2.3-1.9h2.4c1.5,0,2.3,0.6,2.3,1.9V113.6z"/>
	<path class="st4" d="M374,109.6h2.4v12.2H374V109.6z"/>
	<path class="st4" d="M384.8,109.6v1.7h-2.3v10.5h-2.4v-10.5h-2.3v-1.7H384.8z"/>
	<path class="st4" d="M390.5,121.7h-2.4v-3.9l-3.1-8.3h2.4l1.8,6.3l1.7-6.3h2.4l-2.9,8.3L390.5,121.7L390.5,121.7z"/>
	<path class="st0" d="M181.5,120h4v1.7h-6.4v-12.1h6.3v1.7h-3.8v3.4h3.2v1.7h-3.2L181.5,120L181.5,120L181.5,120z"/>
	<path class="st4" d="M181,120.1h4v1.7h-6.4v-12.2h6.3v1.7h-3.8v3.4h3.2v1.7h-3.2L181,120.1L181,120.1L181,120.1z"/>
</g>
</svg>
